<?xml version="1.0" encoding="utf-8"?>
<!-- Generator: Adobe Illustrator 22.0.1, SVG Export Plug-In . SVG Version: 6.00 Build 0)  -->
<svg version="1.1" id="Nublado_Night_copia" xmlns="http://www.w3.org/2000/svg" xmlns:xlink="http://www.w3.org/1999/xlink"
	 x="0px" y="0px" viewBox="0 0 512 512" style="enable-background:new 0 0 512 512;" xml:space="preserve">
<style type="text/css">
	.st0{fill:#9C9E9F;}
	.st1{fill:#D9DADB;}
	.st2{fill:#ECEDED;}
	.st3{fill:#C6C7C8;}
	.st4{fill:#FFBE00;}
	.st5{fill:#28B4FF;}
</style>
<title>Icon_Partly_Cloudy_Rain_Night</title>
<g>
	<path class="st0" d="M192.4,87.2c0,56.3-45.7,102-102.1,101.9c-8.7,0-17.3-1.1-25.7-3.3c14.2,54.5,69.9,87.2,124.4,73
		c54.5-14.2,87.2-69.9,73-124.4c-9.3-35.8-37.2-63.7-73-73C191.3,69.8,192.4,78.5,192.4,87.2z"/>
	<path class="st1" d="M247.8,110.4c-2.2-3.7-4.6-7.3-7.3-10.7l6.3-4.9c2.9,3.7,5.5,7.6,7.9,11.6L247.8,110.4z"/>
	<path class="st1" d="M163.3,266c-48.2,0-90.3-32.5-102.5-79.1c-0.5-2.1,0.7-4.3,2.9-4.9c0.7-0.2,1.3-0.2,2,0
		c52.4,13.6,105.9-17.7,119.5-70.1c4.2-16.2,4.2-33.2,0-49.4c-0.6-2.1,0.7-4.3,2.9-4.9c0.7-0.2,1.4-0.2,2,0
		c19.3,5,36.8,15.5,50.5,30.1c1.5,1.6,1.4,4.1-0.2,5.7s-4.1,1.4-5.7-0.2c-11.1-11.8-24.9-20.7-40.3-25.9c11,57.5-26.7,113-84.2,124
		c-13.2,2.5-26.7,2.5-39.8,0c17,51.4,72.4,79.3,123.8,62.3s79.3-72.4,62.3-123.8c-1.3-3.9-2.8-7.6-4.5-11.3c-1-2-0.2-4.4,1.8-5.4
		s4.4-0.2,5.4,1.8c0,0,0,0.1,0.1,0.1c6.6,14.1,10,29.4,10,45C269.2,218.6,221.8,266,163.3,266z"/>
	<path class="st2" d="M195.9,346.2c-26.8-0.9-47.8-23.4-46.9-50.3c0.9-26.3,22.5-47,48.8-46.9c0.4,0-0.6-7.6-0.6-11.7
		c0-21.5,17.4-38.9,38.8-38.9c7.3,0,14.5,2,20.7,5.9c6.8-35.2,40.7-58.2,75.9-51.4c23.6,4.5,42.8,21.8,49.8,44.8
		c40.8,5.3,69.6,42.6,64.4,83.4c-4.8,37.2-36.4,65-73.9,65L195.9,346.2z"/>
	<path class="st3" d="M428.3,228.2l6.3-4.9c-4-5-8.5-9.6-13.6-13.5l-4.9,6.3C420.6,219.6,424.7,223.7,428.3,228.2z"/>
	<path class="st3" d="M441.2,233.2c-1.1-1.9-3.5-2.6-5.5-1.5s-2.6,3.5-1.5,5.5l0,0c19.1,33.9,7.1,77-26.9,96.1
		c-10.5,5.9-22.4,9.1-34.5,9.1h-175c-24.6,0-44.6-20-44.6-44.6s20-44.6,44.6-44.6c11.8,0,23.2,4.7,31.5,13.1
		c1.5,1.6,4.1,1.7,5.7,0.1c1.6-1.5,1.7-4.1,0.1-5.7c0,0-0.1-0.1-0.1-0.1c-8.9-8.9-20.7-14.3-33.3-15.2c0-0.3-0.1-0.6-0.1-0.9
		c-0.2-2.3-0.4-5.1-0.4-6.9c0-19.3,15.6-34.9,34.9-34.9c6.5,0,12.9,1.8,18.5,5.3l4.9,3.1l1.1-5.7c6.3-33,38.2-54.6,71.1-48.3
		c22.2,4.2,40.3,20.5,46.8,42.1l0.8,2.5l2.6,0.3c8.8,1.1,17.3,3.9,25,8.1c1.9,1.1,4.3,0.5,5.5-1.4c1.1-1.9,0.5-4.3-1.4-5.5
		c-0.1-0.1-0.2-0.1-0.3-0.2c-7.9-4.3-16.4-7.3-25.3-8.7c-4.5-13-12.8-24.3-23.7-32.6c-30.4-22.8-73.5-16.7-96.4,13.6
		c-5.2,6.9-9,14.8-11.3,23.1c-21.5-9.9-47-0.4-56.9,21.1c-2.6,5.6-3.9,11.7-3.9,17.9c0,2.2,0.3,5,0.5,7.6c0,0.1,0,0.2,0,0.3
		c-28.9,2.5-50.4,28-47.8,57c2.4,27,24.9,47.8,52,48h175c43.4,0,78.5-35.2,78.5-78.6C451.4,258.2,447.9,244.9,441.2,233.2
		L441.2,233.2z"/>
	<path class="st4" d="M141,128.2h-6c0-17.4-5-22.5-22.4-22.5v-6c17.4,0,22.4-5,22.4-22.5h6c0,17.4,5,22.4,22.5,22.4v6
		C146,105.7,141,110.8,141,128.2z M129.6,102.7c3.7,1.7,6.6,4.7,8.4,8.4c1.7-3.7,4.7-6.6,8.4-8.4c-3.7-1.7-6.6-4.7-8.3-8.4
		C136.3,98,133.3,101,129.6,102.7z"/>
	<path class="st4" d="M133.7,150c-3.9-1.7-6.9-4.7-8.6-8.6l-0.8-1.8l-0.8,1.8c-1.7,3.9-4.7,6.9-8.6,8.6l-1.8,0.8l1.8,0.8
		c3.9,1.7,7,4.7,8.6,8.6l0.8,1.8l0.8-1.8c1.7-3.9,4.7-7,8.6-8.6l1.8-0.8L133.7,150z"/>
	<path class="st1" d="M223,173.9c-12.2,0-22-9.9-22-22s9.9-22,22-22s22,9.9,22,22c0,5.8-2.3,11.4-6.5,15.6
		C234.4,171.5,228.8,173.9,223,173.9z M223,137.9c-7.7,0-14,6.3-14,14c0,7.7,6.3,14,14,14c7.7,0,14-6.3,14-14c0-3.7-1.5-7.3-4.1-9.9
		C230.3,139.3,226.7,137.8,223,137.9L223,137.9z"/>
	<circle class="st1" cx="146.7" cy="219.3" r="11.3"/>
	<path class="st5" d="M313.9,417.1c-2.2,0-4-1.8-4-4v-23.9c0-2.2,1.8-4,4-4s4,1.8,4,4v23.9C317.9,415.3,316.1,417.1,313.9,417.1z"/>
	<rect x="309.9" y="437" class="st5" width="8" height="17.5"/>
	<path class="st5" d="M218.9,417.1c-2.2,0-4-1.8-4-4v-23.9c0-2.2,1.8-4,4-4s4,1.8,4,4v23.9C222.9,415.3,221.1,417.1,218.9,417.1z"/>
	<rect x="214.9" y="437" class="st5" width="8" height="17.5"/>
	<path class="st5" d="M361.4,454.6c-2.2,0-4-1.8-4-4v-23.9c0-2.2,1.8-4,4-4s4,1.8,4,4v23.9C365.4,452.8,363.6,454.6,361.4,454.6z"/>
	<rect x="357.4" y="385.2" class="st5" width="8" height="17.5"/>
	<path class="st5" d="M266.4,454.6c-2.2,0-4-1.8-4-4v-23.9c0-2.2,1.8-4,4-4s4,1.8,4,4v23.9C270.4,452.8,268.6,454.6,266.4,454.6z"/>
	<rect x="262.4" y="385.2" class="st5" width="8" height="17.5"/>
</g>
</svg>
