<?xml version="1.0" encoding="utf-8"?>
<!-- Generator: Adobe Illustrator 22.0.1, SVG Export Plug-In . SVG Version: 6.00 Build 0)  -->
<svg version="1.1" id="Capa_3_copia" xmlns="http://www.w3.org/2000/svg" xmlns:xlink="http://www.w3.org/1999/xlink" x="0px"
	 y="0px" viewBox="0 0 512 512" style="enable-background:new 0 0 512 512;" xml:space="preserve">
<style type="text/css">
	.st0{fill:#9C9E9F;}
	.st1{fill:#D9DADB;}
	.st2{fill:#ECEDED;}
	.st3{fill:#C6C7C8;}
	.st4{fill:#FFBE00;}
</style>
<title>Icon_Partly_Cloudy_Night</title>
<g>
	<path class="st0" d="M185.3,126.4c0,62.6-50.8,113.3-113.4,113.3c-9.6,0-19.2-1.2-28.5-3.7c15.8,60.5,77.7,96.8,138.2,81
		s96.8-77.7,81-138.3c-10.4-39.6-41.3-70.6-81-81C184.1,107.1,185.3,116.7,185.3,126.4z"/>
	<path class="st1" d="M247.2,151.9c-2.5-4.2-5.2-8.2-8.2-12l6.3-4.9c3.2,4.1,6.1,8.4,8.8,12.8L247.2,151.9z"/>
	<path class="st1" d="M153,324.6c-53.4,0-100-36-113.5-87.6c-0.6-2.1,0.7-4.3,2.9-4.9c0.7-0.2,1.3-0.2,2,0
		c58.5,15.2,118.2-19.9,133.4-78.4c4.7-18,4.7-36.9,0-55c-0.6-2.1,0.7-4.3,2.9-4.9c0.7-0.2,1.4-0.2,2,0
		c21.4,5.6,40.8,17.1,55.9,33.3c1.5,1.6,1.4,4.1-0.2,5.7c-1.6,1.5-4.1,1.4-5.7-0.2c-12.5-13.4-28.2-23.4-45.6-29.1
		c1.5,7.5,2.2,15.2,2.2,22.9c0,64.8-52.6,117.3-117.4,117.2c-7.6,0-15.3-0.8-22.7-2.2c18.9,57.3,80.7,88.4,138,69.5
		s88.4-80.7,69.5-138c-1.3-4.1-2.9-8-4.7-11.9c-0.9-2-0.1-4.4,1.9-5.3c2-0.9,4.4-0.1,5.3,1.9c27.5,58.7,2.1,128.5-56.6,156
		C187.1,320.8,170.2,324.6,153,324.6z"/>
	<path class="st2" d="M189.2,414.2c-29.8-0.6-53.5-25.3-52.9-55.1c0.6-29.8,25.3-53.5,55.1-52.9c0.4,0-0.7-8.4-0.7-13
		c0-23.9,19.3-43.2,43.2-43.2c8.1,0,16,2.3,22.9,6.6c7.5-39.1,45.2-64.7,84.3-57.2c26.3,5,47.6,24.2,55.4,49.8
		c45.4,5.9,77.3,47.4,71.5,92.8c-5.4,41.2-40.5,72.1-82,72.1L189.2,414.2z"/>
	<path class="st3" d="M447.8,282.8l6.3-5c-4.4-5.6-9.4-10.6-15-15l-4.9,6.3C439.2,273.1,443.8,277.7,447.8,282.8z"/>
	<path class="st3" d="M461.4,288.8c-1.1-1.9-3.5-2.6-5.5-1.5s-2.6,3.5-1.5,5.5c21.4,37.9,7.9,86-30,107.4
		c-11.8,6.6-25.1,10.1-38.6,10.1H191.4c-27.6,0-50-22.4-50-50s22.4-50,50-50c13.2,0,25.9,5.3,35.2,14.6c1.5,1.6,4.1,1.7,5.7,0.1
		c1.6-1.5,1.7-4.1,0.1-5.7c0,0-0.1-0.1-0.1-0.1c-9.9-9.9-23.1-15.9-37.1-16.8c0-0.5-0.1-0.9-0.1-1.4c-0.2-2.5-0.5-5.6-0.5-7.7
		c0-21.6,17.5-39.2,39.2-39.2c7.4,0,14.6,2.1,20.8,6l5,3.1l1.1-5.7c7.1-36.9,42.7-61.1,79.6-54c24.8,4.8,44.9,22.9,52.3,47.1
		l0.8,2.5l2.6,0.3c9.8,1.2,19.3,4.3,27.9,9.1c1.9,1.1,4.3,0.5,5.5-1.4c1.1-1.9,0.5-4.3-1.4-5.5c-0.1-0.1-0.2-0.1-0.3-0.2
		c-8.8-4.8-18.3-8.1-28.2-9.7c-5-14.4-14.1-27-26.3-36.2c-33.5-25.2-81.2-18.5-106.4,15c-5.9,7.8-10.2,16.7-12.7,26.1
		c-23.6-11.1-51.7-1.1-62.8,22.5c-3,6.3-4.5,13.2-4.5,20.2c0,2.4,0.3,5.6,0.5,8.4c0,0.2,0.1,0.5,0.1,0.7c-31.9,2.3-56,30.1-53.7,62
		c2.2,30.3,27.4,53.8,57.8,53.8h194.4c47.9,0,86.8-38.9,86.8-86.8C472.6,316.5,468.7,301.8,461.4,288.8z"/>
	<path class="st4" d="M127.8,171.9h-6c0-19.6-5.7-25.3-25.3-25.3v-6c19.6,0,25.3-5.7,25.3-25.3h6c0,19.6,5.7,25.3,25.3,25.3v6
		C133.5,146.6,127.8,152.3,127.8,171.9z M114.7,143.6c4.6,2,8.2,5.6,10.1,10.2c2-4.6,5.6-8.2,10.2-10.2c-4.6-2-8.2-5.6-10.1-10.1
		C122.9,138,119.3,141.7,114.7,143.6z"/>
	<path class="st4" d="M120.1,196.1c-4.3-1.8-7.7-5.3-9.6-9.6l-0.9-2l-0.9,2c-1.8,4.3-5.3,7.7-9.6,9.6l-2,0.9l2,0.9
		c4.3,1.8,7.7,5.3,9.6,9.6l0.9,2l0.9-2c1.8-4.3,5.3-7.7,9.6-9.6l2-0.9L120.1,196.1z"/>
	<path class="st1" d="M219.3,222.2c-13.3,0-24-10.8-23.9-24.1s10.8-24,24.1-23.9s24,10.8,23.9,24.1c0,6.4-2.6,12.5-7.1,16.9
		C231.8,219.7,225.7,222.2,219.3,222.2z M219.3,182.2c-8.8,0-16,7.2-16,16s7.2,16,16,16c8.8,0,16-7.2,16-16c0-4.2-1.7-8.3-4.7-11.3
		C227.6,183.9,223.6,182.2,219.3,182.2L219.3,182.2z"/>
	<circle class="st1" cx="134.6" cy="273.2" r="12.5"/>
</g>
</svg>
