<?xml version="1.0" encoding="utf-8"?>
<!-- Generator: Adobe Illustrator 22.0.1, SVG Export Plug-In . SVG Version: 6.00 Build 0)  -->
<svg version="1.1" id="Capa_5" xmlns="http://www.w3.org/2000/svg" xmlns:xlink="http://www.w3.org/1999/xlink" x="0px" y="0px"
	 viewBox="0 0 512 512" style="enable-background:new 0 0 512 512;" xml:space="preserve">
<style type="text/css">
	.st0{fill:#F29E6F;}
	.st1{fill:#ED7D3F;}
</style>
<title>Icon_Sand</title>
<g>
	<path class="st0" d="M401.4,153.3c-13.7-0.5-27.3,2.5-39.4,8.9c-30.4-29.9-79.3-29.4-109.1,1c-14.2,14.4-22.1,33.9-22.1,54.1v0.1
		c0.1,7.6-6,13.8-13.6,13.9c0,0-0.1,0-0.1,0h-67.8c-43.2,0-78.2,35-78.2,78.2h327.3c43.2,0.1,78.3-34.8,78.4-77.9
		C476.9,189.4,443.6,154.8,401.4,153.3L401.4,153.3z"/>
	<path class="st1" d="M467.5,204.5c-1.9-4.9-4.3-9.5-7.2-13.9l6.7-4.4c3.2,4.8,5.9,10,8,15.4L467.5,204.5z"/>
	<path class="st1" d="M398.4,313.5H67.2v-4c0-45.4,36.8-82.1,82.2-82.2h67.8c2.5,0,5-1,6.8-2.8c1.9-1.9,2.9-4.4,2.9-7.1v-0.2
		c-0.1-44.8,36.2-81.2,81.1-81.3c20.3,0,39.9,7.6,54.9,21.3c33.1-16,72.8-8,97.1,19.5c1.5,1.7,1.3,4.2-0.3,5.7s-4.2,1.3-5.7-0.3
		c-22.6-25.6-59.8-32.4-90-16.5l-2.6,1.4l-2.1-2.1c-28.9-28.3-75.2-27.9-103.5,1c-13.4,13.7-21,32.1-20.9,51.3v0.1
		c0,4.8-1.9,9.4-5.2,12.7c-3.3,3.3-7.8,5.2-12.4,5.2h-67.7c-39.4,0.1-71.8,30.9-74,70.2h323.1c41,0,74.2-33.2,74.2-74.1
		c0-5.2-0.5-10.3-1.6-15.4c-0.5-2.1,0.8-4.3,2.9-4.8c2.1-0.5,4.3,0.8,4.8,2.9c0,0.1,0,0.2,0.1,0.2c9.4,44.4-18.9,88-63.3,97.4
		C409.9,313,404.2,313.6,398.4,313.5L398.4,313.5z"/>
	<path class="st1" d="M179.6,208.9h-102c-2.2,0-4-1.8-4-4s1.8-4,4-4h102c13.1,0,23.7-10.6,23.7-23.7s-10.6-23.7-23.7-23.7
		c-13.1,0-23.7,10.6-23.7,23.7l0,0c0,2.2-1.8,4-4,4s-4-1.8-4-4c0-17.5,14.2-31.7,31.7-31.7s31.7,14.2,31.7,31.7
		S197.1,208.9,179.6,208.9L179.6,208.9z"/>
	<path class="st1" d="M335.4,331.9h-300c-2.2,0-4,1.8-4,4s1.8,4,4,4h158.3c14.4,0,26,11.6,26,26s-11.6,26-26,26c-2.2,0-4,1.8-4,4
		s1.8,4,4,4c18.8,0,34-15.3,34-34c0-10-4.4-19.5-12.1-26h119.8c22.4,0,40.6,18.2,40.6,40.6S357.8,421,335.4,421
		s-40.6-18.2-40.6-40.6l0,0c0-2.2-1.8-4-4-4s-4,1.8-4,4c0,26.8,21.7,48.6,48.6,48.6s48.6-21.7,48.6-48.6S362.2,331.9,335.4,331.9
		L335.4,331.9z"/>
	<rect x="433.2" y="337.1" class="st1" width="16.5" height="8"/>
	
		<rect x="420.3" y="377.6" transform="matrix(0.7071 -0.7071 0.7071 0.7071 -144.2657 414.8155)" class="st1" width="16.5" height="8"/>
	
		<rect x="404.5" y="341.8" transform="matrix(0.7071 -0.7071 0.7071 0.7071 -127.8839 391.3627)" class="st1" width="8" height="16.5"/>
	<rect x="79.2" y="365.4" class="st1" width="8" height="16.5"/>
	
		<rect x="119.7" y="378.2" transform="matrix(0.7071 -0.7071 0.7071 0.7071 -237.0379 200.647)" class="st1" width="8" height="16.5"/>
	
		<rect x="83.9" y="402.6" transform="matrix(0.7071 -0.7071 0.7071 0.7071 -260.5107 184.2369)" class="st1" width="16.5" height="8"/>
	
		<rect x="258.4" y="103.9" transform="matrix(0.7071 -0.7071 0.7071 0.7071 -2.4558 218.3997)" class="st1" width="8" height="16.5"/>
	<rect x="216.4" y="127.7" class="st1" width="16.5" height="8"/>
	<rect x="228.7" y="87" class="st1" width="8" height="16.5"/>
</g>
</svg>
