<?xml version="1.0" encoding="utf-8"?>
<!-- Generator: Adobe Illustrator 22.0.1, SVG Export Plug-In . SVG Version: 6.00 Build 0)  -->
<svg version="1.1" id="Snow" xmlns="http://www.w3.org/2000/svg" xmlns:xlink="http://www.w3.org/1999/xlink" x="0px" y="0px"
	 viewBox="0 0 512 512" style="enable-background:new 0 0 512 512;" xml:space="preserve">
<style type="text/css">
	.st0{fill:#ECEDED;}
	.st1{fill:#B1B3B4;}
	.st2{fill:#5096FF;}
	.st3{fill:#3C64FF;}
</style>
<title>Icon_Snow</title>
<g>
	<path class="st0" d="M129.6,320.5c-33.1-0.7-59.5-28.1-58.8-61.2c0.7-33.1,28.1-59.5,61.2-58.8c0.5,0-0.8-9.4-0.8-14.4
		c0-26.5,21.5-48,48-48c9,0,17.8,2.5,25.4,7.3c8.3-43.4,50.2-71.8,93.6-63.5c29.2,5.6,52.9,26.9,61.5,55.4
		c50.4,6.2,86.3,52.1,80.1,102.5c-5.7,46.3-45.2,81-91.8,80.8L129.6,320.5z"/>
	<path class="st1" d="M417.2,174.4c-4.4-5.7-9.6-10.8-15.2-15.2l4.9-6.3c6.2,4.8,11.8,10.4,16.6,16.5L417.2,174.4z"/>
	<path class="st1" d="M348,324.8h-45.1c-2.2,0-4-1.8-4-4s1.8-4,4-4H348c48.6,0,88-39.4,88-88c0-15.1-3.9-30-11.3-43.2
		c-1.1-1.9-0.4-4.4,1.5-5.5s4.4-0.4,5.5,1.5c26,46.2,9.7,104.7-36.5,130.8C380.8,320.5,364.5,324.8,348,324.8z"/>
	<path class="st1" d="M394.3,144.6c-9.8-5.4-20.4-9-31.5-10.7c-5.5-16-15.6-30.1-29.1-40.3c-37.1-27.9-89.7-20.4-117.6,16.6
		c-6.6,8.8-11.4,18.7-14.2,29.4c-25.8-12.5-56.9-1.8-69.5,24.1c-3.4,7.1-5.2,14.8-5.2,22.7c0,2.6,0.3,6.2,0.6,9.3
		c0,0.4,0.1,0.8,0.1,1.3c-35.2,2.6-61.7,33.3-59.1,68.6c2.5,33.2,29.9,58.9,63.2,59.2h96.5c2.2,0,4-1.8,4-4s-1.8-4-4-4H132
		c-30.9,0-56-25.1-56-56s25.1-56,56-56c14.8,0,29.1,5.9,39.6,16.4c1.6,1.6,4.1,1.6,5.7,0s1.6-4.1,0-5.7
		c-11-11.1-25.7-17.7-41.3-18.6c0-0.6-0.1-1.2-0.2-2c-0.3-2.8-0.6-6.3-0.6-8.6c0-24.3,19.7-44,44-44c8.2,0,16.3,2.3,23.3,6.7l5,3.1
		l1.1-5.7c7.9-41.2,47.7-68.2,88.9-60.4c27.7,5.3,50.3,25.6,58.4,52.6l0.8,2.5l2.6,0.3c10.9,1.4,21.5,4.8,31.1,10.1
		c1.9,1.1,4.3,0.5,5.5-1.4c1.1-1.9,0.5-4.3-1.4-5.5C394.5,144.7,394.4,144.6,394.3,144.6L394.3,144.6z"/>
	<circle class="st2" cx="265.5" cy="320.8" r="35"/>
	<path class="st3" d="M265.5,359.8c-21.5,0-39-17.5-38.9-39c0-21.5,17.5-39,39-38.9c21.5,0,38.9,17.4,38.9,38.9
		C304.5,342.3,287,359.8,265.5,359.8z M265.5,289.7c-17.1,0-31,13.9-30.9,31c0,17.1,13.9,31,31,30.9c17.1,0,30.9-13.9,31-31
		C296.5,303.6,282.6,289.7,265.5,289.7z"/>
	<rect x="261.5" y="206.3" class="st3" width="8" height="11.3"/>
	<path class="st3" d="M265.5,287.7c-2.2,0-4-1.8-4-4v-15.8c0-2.2,1.8-4,4-4s4,1.8,4,4v15.8C269.5,285.9,267.7,287.7,265.5,287.7z"/>
	
		<rect x="247.8" y="225" transform="matrix(0.7071 -0.7071 0.7071 0.7071 -93.8171 258.7777)" class="st2" width="35.3" height="35.4"/>
	<path class="st3" d="M265.5,271.6c-1.1,0-2.1-0.4-2.8-1.2l-25-25c-1.6-1.6-1.6-4.1,0-5.7c0,0,0,0,0,0l25-25c1.6-1.6,4.1-1.6,5.7,0
		c0,0,0,0,0,0l25,25c1.6,1.6,1.6,4.1,0,5.7c0,0,0,0,0,0l-25,25C267.5,271.2,266.5,271.6,265.5,271.6z M246.1,242.6l19.3,19.4
		l19.3-19.4l-19.3-19.3L246.1,242.6z"/>
	<rect x="261.5" y="423.9" class="st3" width="8" height="11.3"/>
	<path class="st3" d="M265.5,377.7c-2.2,0-4-1.8-4-4v-16.3c0-2.2,1.8-4,4-4s4,1.8,4,4v16.3C269.5,375.9,267.7,377.7,265.5,377.7z"/>
	<path class="st3" d="M265.5,427.9c-1.1,0-2.1-0.4-2.8-1.2l-25-25c-1.6-1.6-1.6-4.1,0-5.7c0,0,0,0,0,0l25-25c1.6-1.6,4.1-1.6,5.7,0
		c0,0,0,0,0,0l25,25c1.6,1.6,1.6,4.1,0,5.7c0,0,0,0,0,0l-25,25C267.5,427.5,266.5,427.9,265.5,427.9z M246.1,398.9l19.3,19.4
		l19.3-19.4l-19.3-19.3L246.1,398.9z"/>
	<rect x="261.5" y="423.9" class="st3" width="8" height="11.3"/>
	
		<rect x="247.8" y="381.2" transform="matrix(0.7071 -0.7071 0.7071 0.7071 -204.321 304.5464)" class="st2" width="35.4" height="35.4"/>
	<path class="st3" d="M265.5,427.9c-1.1,0-2.1-0.4-2.8-1.2l-25-25c-1.6-1.6-1.6-4.1,0-5.7c0,0,0,0,0,0l25-25c1.6-1.6,4.1-1.6,5.7,0
		c0,0,0,0,0,0l25,25c1.6,1.6,1.6,4.1,0,5.7c0,0,0,0,0,0l-25,25C267.5,427.5,266.5,427.9,265.5,427.9z M246.1,398.9l19.3,19.4
		l19.3-19.4l-19.3-19.3L246.1,398.9z"/>
	<path class="st3" d="M232.5,338l-11.5,7.7l-22.9-4.6c-2.2-0.4-4.3,1-4.7,3.1c-0.4,2.2,1,4.3,3.1,4.7l15,3l-14.8,9.9l-35.2-7
		c-2.1-0.5-4.3,0.8-4.8,3c-0.5,2.1,0.8,4.3,3,4.8c0.1,0,0.2,0,0.3,0.1l27.3,5.4l-4.5,3c-1.8,1.2-2.3,3.7-1.1,5.6
		c0.7,1.1,2,1.8,3.3,1.8c0.8,0,1.6-0.2,2.2-0.7l4.5-3l-5.4,27.3c-0.4,2.2,1,4.3,3.1,4.7c0,0,0,0,0,0c0.3,0.1,0.5,0.1,0.8,0.1
		c1.9,0,3.5-1.3,3.9-3.2l7-35.2l14.8-9.9l-3,15c-0.4,2.2,1,4.3,3.1,4.7c0,0,0,0,0,0c0.3,0,0.5,0.1,0.8,0.1c1.9,0,3.5-1.3,3.9-3.2
		l4.6-22.9l11.5-7.7c1.9-1.2,2.4-3.6,1.3-5.5c-1.2-1.9-3.6-2.4-5.5-1.3C232.6,337.9,232.5,338,232.5,338L232.5,338z"/>
	
		<rect x="162.5" y="380.9" transform="matrix(0.8315 -0.5556 0.5556 0.8315 -185.2565 159.0428)" class="st3" width="14" height="8"/>
	<path class="st3" d="M374.2,357.3c-0.4-2.2-2.6-3.6-4.7-3.1c0,0,0,0,0,0l-35.1,7.2l-14.8-9.8l15-3.1c2.2-0.4,3.6-2.6,3.1-4.7
		c-0.4-2.2-2.6-3.6-4.7-3.1l-22.9,4.7l-11.7-7.7c-1.9-1.2-4.3-0.6-5.5,1.2c-1.2,1.8-0.7,4.2,1.1,5.4l11.7,7.7l4.7,22.9
		c0.4,1.9,2,3.2,3.9,3.2c0.3,0,0.5,0,0.8-0.1c2.2-0.4,3.6-2.6,3.1-4.7l-3.1-15l14.8,9.7l7.2,35.1c0.4,1.9,2,3.2,3.9,3.2
		c0.3,0,0.5,0,0.8-0.1c2.2-0.4,3.6-2.6,3.1-4.7c0,0,0,0,0,0l-5.6-27.3l4.5,3c1.8,1.2,4.3,0.7,5.5-1.1c1.2-1.8,0.7-4.3-1.1-5.5
		l-4.5-3l27.3-5.6C373.3,361.6,374.7,359.4,374.2,357.3C374.2,357.3,374.2,357.3,374.2,357.3z"/>
	
		<rect x="359.7" y="375.4" transform="matrix(0.5478 -0.8366 0.8366 0.5478 -155.5206 477.2287)" class="st3" width="8" height="14.1"/>
	<path class="st3" d="M237,296.9l-11.6-7.7l-4.6-22.9c-0.5-2.1-2.7-3.5-4.8-3c-2,0.5-3.3,2.5-3,4.5l3,15l-14.8-9.9l-7-35.1
		c-0.3-2.2-2.4-3.7-4.6-3.3c-2.2,0.3-3.7,2.4-3.3,4.6c0,0.1,0,0.2,0.1,0.3l5.4,27.3l-4.5-3c-1.8-1.3-4.3-0.9-5.6,0.9
		c-1.3,1.8-0.9,4.3,0.9,5.6c0.1,0,0.1,0.1,0.2,0.1l4.5,3l-27.3,5.4c-2.2,0.4-3.6,2.5-3.2,4.7c0.4,1.9,2,3.3,4,3.3
		c0.3,0,0.5,0,0.8-0.1l35.1-7l14.8,9.9l-15.1,3c-2.2,0.4-3.6,2.6-3.1,4.7c0.4,1.9,2,3.2,3.9,3.2c0.3,0,0.5,0,0.8-0.1l22.9-4.5
		l11.6,7.7c1.8,1.3,4.3,0.9,5.6-0.9c1.3-1.8,0.9-4.3-0.9-5.6C237.2,297,237.1,297,237,296.9L237,296.9z"/>
	
		<rect x="165.5" y="249.6" transform="matrix(0.5556 -0.8315 0.8315 0.5556 -138.0479 255.0144)" class="st3" width="8" height="14"/>
	<path class="st3" d="M296.4,304.1c0.8,0,1.6-0.2,2.2-0.7l11.3-7.5l22.9,4.5c0.3,0.1,0.5,0.1,0.8,0.1c2.2,0,4-1.8,4-4
		c0-1.9-1.3-3.5-3.2-3.9l-15-3l14.8-9.9l35.2,7c0.3,0,0.5,0.1,0.8,0.1c2.2,0,4-1.8,4-4c0-1.9-1.3-3.5-3.2-3.9l-27.3-5.4l4.5-3
		c1.8-1.2,2.3-3.7,1.1-5.5c-1.2-1.8-3.7-2.3-5.5-1.1l-4.5,3l5.4-27.3c0.4-2.2-1-4.3-3.1-4.7c-2.2-0.4-4.3,1-4.7,3.1l0,0l-7,35.1
		l-14.8,9.9l3-15c0.3-2.2-1.1-4.2-3.3-4.6c-2.1-0.3-4,1-4.5,3l-4.6,22.9l-11.3,7.5c-1.8,1.2-2.3,3.7-1.1,5.5
		C293.9,303.4,295.1,304.1,296.4,304.1L296.4,304.1z"/>
	
		<rect x="354.4" y="252.7" transform="matrix(0.8315 -0.5556 0.5556 0.8315 -81.6831 244.0397)" class="st3" width="14" height="8"/>
</g>
</svg>
