<?xml version="1.0" encoding="utf-8"?>
<!-- Generator: Adobe Illustrator 22.0.1, SVG Export Plug-In . SVG Version: 6.00 Build 0)  -->
<svg version="1.1" id="Neblina_copia" xmlns="http://www.w3.org/2000/svg" xmlns:xlink="http://www.w3.org/1999/xlink" x="0px"
	 y="0px" viewBox="0 0 512 512" style="enable-background:new 0 0 512 512;" xml:space="preserve">
<style type="text/css">
	.st0{fill:#B07F48;}
	.st1{fill:#7C4D25;}
	.st2{fill:#00FF64;}
	.st3{fill:#00632E;}
	.st4{fill:#ECEDED;}
	.st5{fill:#B1B3B4;}
</style>
<title>Icon_Fog</title>
<g>
	<rect x="393.6" y="233.2" class="st0" width="24.8" height="56.7"/>
	<path class="st1" d="M422.4,293.9h-32.8v-64.7h32.8L422.4,293.9z M397.6,285.9h16.8v-48.7h-16.8L397.6,285.9z"/>
	<polygon class="st2" points="406.1,72.6 335.2,233.1 477,233.1 	"/>
	<rect x="101.8" y="233.2" class="st0" width="24.8" height="56.7"/>
	<path class="st1" d="M130.6,293.9H97.8v-64.7h32.8V293.9z M105.8,285.9h16.8v-48.7h-16.8V285.9z"/>
	<polygon class="st2" points="114.3,72.6 43.4,233.1 185.2,233.1 	"/>
	<rect x="136.8" y="125.2" transform="matrix(0.9147 -0.404 0.404 0.9147 -41.5983 68.2057)" class="st3" width="8" height="15"/>
	<path class="st3" d="M185.2,237.1H43.4c-2.2,0-4-1.8-4-4c0-0.6,0.1-1.1,0.3-1.6L110.6,71c0.9-2,3.2-3,5.2-2.1
		c1,0.4,1.7,1.2,2.1,2.1l19.5,44.1c0.9,2,0,4.4-2,5.3c-2,0.9-4.4,0-5.3-2l-15.8-35.8L49.5,229.1H179l-34.8-78.8c-0.9-2,0-4.4,2-5.3
		c2-0.9,4.4,0,5.3,2l0,0l37.3,84.4c0.9,2,0,4.4-2,5.3C186.3,237,185.7,237.1,185.2,237.1L185.2,237.1z"/>
	<rect x="428.6" y="125.2" transform="matrix(0.9147 -0.404 0.404 0.9147 -16.7295 186.0719)" class="st3" width="8" height="15"/>
	<path class="st3" d="M476.9,237.1H335.1c-2.2,0-4-1.8-4-4c0-0.6,0.1-1.1,0.3-1.6L402.4,71c0.9-2,3.3-2.9,5.3-2c0.9,0.4,1.6,1.1,2,2
		l19.5,44.1c1,2,0.1,4.4-1.9,5.3c-2,1-4.4,0.1-5.3-1.9c0-0.1-0.1-0.2-0.1-0.2L406,82.5l-64.7,146.6h129.5L436,150.3
		c-0.8-2.1,0.2-4.4,2.3-5.2c1.9-0.7,4.1,0.1,5,1.9l37.3,84.4c0.9,2,0,4.4-2,5.3C478.1,237,477.5,237.1,476.9,237.1L476.9,237.1z"/>
	<rect x="278.7" y="382.7" class="st0" width="24.8" height="56.7"/>
	<path class="st1" d="M307.5,443.4h-32.8v-64.7h32.8V443.4z M282.7,435.4h16.8v-48.7h-16.8V435.4z"/>
	<polygon class="st2" points="291.2,222.1 220.3,382.6 362,382.6 	"/>
	<path class="st3" d="M362,386.6H220.3c-2.2,0-4-1.8-4-4c0-0.6,0.1-1.1,0.3-1.6l70.9-160.5c0.9-2,3.3-2.9,5.3-2c0.9,0.4,1.6,1.1,2,2
		L365.7,381c0.9,2,0,4.4-2,5.3C363.2,386.5,362.6,386.6,362,386.6L362,386.6z M226.4,378.6h129.5L291.2,232L226.4,378.6z"/>
	<path class="st4" d="M52.5,161.8h208.9c9.7,0,17.5-7.8,17.5-17.5l0,0l0,0c0-9.7-7.8-17.5-17.5-17.5h-79.8
		c-9.7,0-17.5-7.8-17.5-17.5l0,0l0,0c0-9.7,7.8-17.5,17.5-17.5h165c9.7,0,17.5,7.8,17.5,17.5l0,0l0,0c0,9.7-7.8,17.5-17.5,17.5
		c0,0,0,0,0,0h-15.2c-9.7,0-17.5,7.8-17.5,17.5l0,0l0,0c0,9.7,7.8,17.5,17.5,17.5c0,0,0,0,0,0h86.1c9.7,0,17.5,7.8,17.5,17.5l0,0
		c0,9.7-7.8,17.5-17.5,17.5c0,0,0,0,0,0h-365c-9.7,0-17.5-7.8-17.5-17.5l0,0l0,0C35.1,169.6,42.9,161.8,52.5,161.8z"/>
	<path class="st4" d="M459.5,324.4H251c-9.8,0-18.1-8-17.9-17.8c0.2-9.5,8-17.2,17.5-17.2h79.8c9.7,0,17.5-7.8,17.5-17.5l0,0
		c0-9.7-7.8-17.5-17.5-17.5h-165c-9.7,0-17.5,7.8-17.5,17.5c0,0,0,0,0,0l0,0c0,9.7,7.8,17.5,17.5,17.5h14.8c9.8,0,18.1,8,18,17.8
		c-0.2,9.5-8,17.2-17.5,17.2H66c-9.7,0-17.5,7.8-17.5,17.5l0,0l0,0c0,9.7,7.8,17.5,17.5,17.5h50.7c9.7,0,17.5,7.8,17.5,17.5
		c0,0,0,0,0,0l0,0c0,9.7-7.8,17.5-17.5,17.5l0,0h-20c-9.8,0-18.1,8-18,17.8c0.2,9.5,8,17.2,17.5,17.2H224c9.8,0,18.1-8,18-17.8
		c-0.2-9.5-8-17.2-17.5-17.2h-37.8c-9.7,0-17.5-7.8-17.5-17.5l0,0c0-9.7,7.8-17.5,17.5-17.5l0,0h272.8c9.7,0,17.5-7.8,17.5-17.5l0,0
		C477,332.3,469.1,324.4,459.5,324.4L459.5,324.4z"/>
	<path class="st4" d="M389.8,394.4H447c9.7,0,17.5,7.8,17.5,17.5l0,0c0,9.7-7.8,17.5-17.5,17.5h-57.2c-9.7,0-17.5-7.8-17.5-17.5l0,0
		C372.3,402.3,380.2,394.4,389.8,394.4z"/>
	<path class="st4" d="M70.6,91.8h22.1c9.7,0,17.5,7.8,17.5,17.5l0,0c0,9.7-7.8,17.5-17.5,17.5H70.6c-9.7,0-17.5-7.8-17.5-17.5l0,0
		C53.1,99.6,60.9,91.8,70.6,91.8z"/>
	<rect x="412" y="320.4" class="st5" width="15" height="8"/>
	<path class="st5" d="M224,433.4H96.2c-11.7-0.1-21.2-9.4-21.5-21.1c-0.1-5.7,2.1-11.2,6.2-15.3c4.2-4.2,9.9-6.6,15.8-6.7h20
		c7.5,0,13.5-6,13.5-13.5s-6-13.5-13.5-13.5H66c-11.9,0-21.5-9.6-21.5-21.5s9.6-21.5,21.5-21.5h114.6c7.3,0,13.3-5.9,13.5-13.2
		c0.1-3.6-1.3-7-3.9-9.5c-2.7-2.7-6.3-4.3-10.1-4.3h-14.8c-11.9,0-21.5-9.6-21.5-21.5s9.6-21.5,21.5-21.5l0,0h165
		c11.9,0,21.5,9.6,21.5,21.5s-9.6,21.5-21.5,21.5h-79.8c-7.3,0-13.3,5.9-13.5,13.2c-0.1,3.6,1.3,7,3.9,9.5c2.7,2.7,6.3,4.2,10.1,4.3
		h151c2.2,0,4,1.8,4,4s-1.8,4-4,4H251c-5.9,0-11.6-2.4-15.8-6.7c-4-4-6.2-9.5-6.1-15.3c0.3-11.7,9.8-21,21.5-21.1h79.8
		c7.5,0,13.5-6,13.5-13.5s-6-13.5-13.5-13.5h-165c-7.5,0-13.5,6-13.5,13.5s6,13.5,13.5,13.5h14.8c5.9,0,11.6,2.4,15.8,6.7
		c4,4,6.2,9.5,6.1,15.3c-0.3,11.7-9.8,21-21.5,21.1H66c-7.5,0-13.5,6-13.5,13.5s6,13.5,13.5,13.5h50.7c11.9,0,21.5,9.6,21.5,21.5
		s-9.6,21.5-21.5,21.5h-20c-3.8,0-7.4,1.6-10.1,4.3c-2.5,2.5-3.9,5.9-3.9,9.5c0.2,7.3,6.2,13.2,13.5,13.2H224
		c3.8,0,7.4-1.6,10.1-4.3c2.5-2.5,3.9-5.9,3.9-9.5c-0.2-7.3-6.2-13.2-13.5-13.2h-37.8c-11.9,0-21.5-9.6-21.5-21.5
		s9.6-21.5,21.5-21.5h272.8c7.5,0,13.5-6,13.5-13.5s-6-13.5-13.5-13.5H437c-2.2,0-4-1.8-4-4s1.8-4,4-4h22.4
		c11.9,0,21.5,9.6,21.5,21.5s-9.6,21.5-21.5,21.5H186.7c-7.5,0-13.5,6-13.5,13.5s6,13.5,13.5,13.5h37.7c11.7,0.1,21.2,9.4,21.5,21.1
		c0.1,5.7-2.1,11.2-6.2,15.3C235.6,431,229.9,433.4,224,433.4z"/>
	<path class="st5" d="M447,433.4h-57.2c-11.9,0-21.5-9.6-21.5-21.5s9.6-21.5,21.5-21.5H447c11.9,0,21.5,9.6,21.5,21.5
		S458.9,433.4,447,433.4z M389.8,398.4c-7.5,0-13.5,6-13.5,13.5s6,13.5,13.5,13.5H447c7.5,0,13.5-6,13.5-13.5s-6-13.5-13.5-13.5
		H389.8z"/>
	<path class="st5" d="M92.6,130.8h-22c-11.9,0-21.5-9.6-21.5-21.5s9.6-21.5,21.5-21.5h22c11.9,0,21.5,9.6,21.5,21.5
		S104.5,130.8,92.6,130.8z M70.6,95.8c-7.5,0-13.5,6-13.5,13.5s6,13.5,13.5,13.5h22c7.5,0,13.5-6,13.5-13.5s-6-13.5-13.5-13.5H70.6z
		"/>
	<path class="st5" d="M417.5,200.8h-365c-11.9,0-21.5-9.6-21.5-21.5s9.6-21.5,21.5-21.5h208.9c7.5,0,13.5-6,13.5-13.5
		s-6-13.5-13.5-13.5h-79.8c-11.9,0-21.5-9.6-21.5-21.5s9.6-21.5,21.5-21.5h25.6c2.2,0,4,1.8,4,4s-1.8,4-4,4h-25.6
		c-7.5,0-13.5,6-13.5,13.5s6,13.5,13.5,13.5h79.8c11.9,0,21.5,9.6,21.5,21.5s-9.6,21.5-21.5,21.5H52.5c-7.5,0-13.5,6-13.5,13.5
		s6,13.5,13.5,13.5h365c7.5,0,13.5-6,13.5-13.5s-6-13.5-13.5-13.5h-86.1c-11.9,0-21.5-9.6-21.5-21.5s9.6-21.5,21.5-21.5h15.2
		c7.5,0,13.5-6,13.5-13.5s-6-13.5-13.5-13.5H242.2c-2.2,0-4-1.8-4-4s1.8-4,4-4h104.5c11.9,0,21.5,9.6,21.5,21.5s-9.6,21.5-21.5,21.5
		h-15.2c-7.5,0-13.5,6-13.5,13.5s6,13.5,13.5,13.5h86.1c11.9,0,21.5,9.6,21.5,21.5S429.4,200.8,417.5,200.8L417.5,200.8z"/>
	<rect x="217.2" y="87.8" class="st5" width="15" height="8"/>
</g>
</svg>
