<?xml version="1.0" encoding="utf-8"?>
<!-- Generator: Adobe Illustrator 22.0.1, SVG Export Plug-In . SVG Version: 6.00 Build 0)  -->
<svg version="1.1" id="Moon_Line" xmlns="http://www.w3.org/2000/svg" xmlns:xlink="http://www.w3.org/1999/xlink" x="0px" y="0px"
	 viewBox="0 0 512 512" style="enable-background:new 0 0 512 512;" xml:space="preserve">
<style type="text/css">
	.st0{fill:#9C9E9F;}
	.st1{fill:#D9DADB;}
	.st2{fill:#FFBE00;}
</style>
<title>Icon_Moon</title>
<g>
	<circle class="st0" cx="261.8" cy="256" r="130"/>
	<path class="st1" d="M261.8,390c-73.9,0-134-60.1-134-134s60.1-134,134-134c22.1,0,43.8,5.4,63.3,15.9c1.9,1.1,2.6,3.5,1.6,5.4
		c-1,1.9-3.4,2.6-5.4,1.6c-61.3-32.9-137.7-9.8-170.6,51.6s-9.8,137.7,51.6,170.6s137.7,9.8,170.6-51.6
		c20.1-37.6,19.9-82.8-0.7-120.2c-1.1-1.9-0.5-4.3,1.4-5.5s4.3-0.5,5.5,1.4c0.1,0.1,0.1,0.2,0.2,0.3c10.9,19.8,16.6,42,16.6,64.6
		C395.8,329.9,335.6,390,261.8,390z"/>
	<path class="st1" d="M360.9,178.2c-6.4-8.1-13.7-15.4-21.9-21.7l4.9-6.3c8.6,6.7,16.4,14.5,23.2,23.1L360.9,178.2z"/>
	<path class="st1" d="M291.5,255.3c-16,0-29-13-29-29s13-29,29-29s29,13,29,29l0,0C320.5,242.3,307.5,255.3,291.5,255.3z
		 M291.5,205.3c-11.6,0-21,9.4-21,21s9.4,21,21,21s21-9.4,21-21S303.1,205.3,291.5,205.3z"/>
	<circle class="st1" cx="202.3" cy="315.9" r="20"/>
	<circle class="st1" cx="202.3" cy="196.6" r="12.5"/>
	<circle class="st1" cx="321.1" cy="315.6" r="10"/>
	<path class="st2" d="M136.9,148.6h-6c0-19.6-5.7-25.3-25.3-25.3v-6c19.6,0,25.3-5.7,25.3-25.3h6c0,19.6,5.7,25.3,25.3,25.3v6
		C142.6,123.3,136.9,129,136.9,148.6z M123.8,120.3c4.6,1.9,8.2,5.6,10.1,10.1c2-4.6,5.6-8.2,10.1-10.1c-4.6-2-8.2-5.6-10.1-10.1
		C132,114.7,128.4,118.3,123.8,120.3z"/>
	<path class="st2" d="M390.5,149.6l-3.8-8.5c-1.9-4.5-5.5-8.1-10-10l-8.5-3.8l8.5-3.8c4.5-1.9,8.1-5.5,10-10l3.8-8.5l3.8,8.5
		c1.9,4.5,5.5,8.1,10,10l8.5,3.8l-8.5,3.8c-4.5,1.9-8.1,5.5-10,10L390.5,149.6z M382.3,127.3c3.4,2,6.2,4.8,8.2,8.2
		c2-3.4,4.8-6.2,8.2-8.2c-3.4-2-6.2-4.8-8.2-8.2C388.4,122.4,385.6,125.3,382.3,127.3z"/>
	<path class="st2" d="M118.7,193.5l-3.6-8.1c-1.5-3.6-4.4-6.5-8.1-8.1l-8.1-3.6l8.1-3.7c3.6-1.5,6.5-4.4,8.1-8.1l3.6-8.1l3.7,8.1
		c1.5,3.6,4.4,6.5,8,8.1l8.1,3.6l-8.1,3.6c-3.6,1.5-6.5,4.4-8.1,8.1L118.7,193.5z M112.8,173.7c2.3,1.5,4.4,3.5,5.9,5.9
		c1.5-2.3,3.5-4.4,5.9-5.9c-2.4-1.5-4.4-3.5-5.9-5.9C117.2,170.1,115.2,172.1,112.8,173.7z"/>
</g>
</svg>
